<svg width="100" height="100" viewBox="0 0 100 100" fill="none" xmlns="http://www.w3.org/2000/svg">
<g id="Dark=on, Type=Four, Lock=On">
<path d="M0 8C0 3.58172 3.58172 0 8 0H92C96.4183 0 100 3.58172 100 8V92C100 96.4183 96.4183 100 92 100H8C3.58172 100 0 96.4183 0 92V8Z" fill="#1F2937"/>
<path id="Union" fill-rule="evenodd" clip-rule="evenodd" d="M23.7931 37.3824V34.4012L23.7931 34.3793C23.7931 19.8104 35.6035 8 50.1724 8C64.7413 8 76.5517 19.8104 76.5517 34.3793V37.3824C81.5055 37.9784 85.3448 42.196 85.3448 47.3103V83C85.3448 88.5229 80.8677 93 75.3448 93H25C19.4772 93 15 88.5229 15 83V47.3103C15 42.196 18.8394 37.9783 23.7931 37.3824ZM64.8276 37.3104H35.5173V34.3793H35.5173C35.5173 26.2855 42.0786 19.7242 50.1725 19.7242C58.2663 19.7242 64.8276 26.2855 64.8276 34.3793L64.8276 34.3962V37.3104Z" fill="#831843"/>
<circle id="Ellipse 5" cx="75.5" cy="75.5" r="12.5" fill="white"/>
<circle id="Ellipse 6" cx="75.5" cy="24.5" r="12.5" fill="white"/>
<circle id="Ellipse 7" cx="24.5" cy="24.5" r="12.5" fill="white"/>
<circle id="Ellipse 8" cx="24.5" cy="75.5" r="12.5" fill="white"/>
</g>
</svg>
