<svg width="100" height="100" viewBox="0 0 100 100" fill="none" xmlns="http://www.w3.org/2000/svg">
<g id="Dark=on, Type=Two, Lock=On">
<path d="M0 8C0 3.58172 3.58172 0 8 0H92C96.4183 0 100 3.58172 100 8V92C100 96.4183 96.4183 100 92 100H8C3.58172 100 0 96.4183 0 92V8Z" fill="#1F2937"/>
<path id="Union" fill-rule="evenodd" clip-rule="evenodd" d="M23.7931 36.3824V33.4012L23.7931 33.3793C23.7931 18.8104 35.6035 7 50.1724 7C64.7413 7 76.5517 18.8104 76.5517 33.3793V36.3824C81.5055 36.9784 85.3448 41.196 85.3448 46.3103V82C85.3448 87.5229 80.8677 92 75.3448 92H25C19.4772 92 15 87.5229 15 82V46.3103C15 41.196 18.8394 36.9783 23.7931 36.3824ZM64.8276 36.3104H35.5173V33.3793H35.5173C35.5173 25.2855 42.0786 18.7242 50.1725 18.7242C58.2663 18.7242 64.8276 25.2855 64.8276 33.3793L64.8276 33.3962V36.3104Z" fill="#831843"/>
<circle id="Ellipse 5" cx="75.5" cy="75.5" r="12.5" fill="white"/>
<circle id="Ellipse 6" cx="24.5" cy="24.5" r="12.5" fill="white"/>
</g>
</svg>
